<?xml version="1.0" standalone="no"?>
<!DOCTYPE svg PUBLIC "-//W3C//DTD SVG 20010904//EN"
 "http://www.w3.org/TR/2001/REC-SVG-20010904/DTD/svg10.dtd">
<svg version="1.0" xmlns="http://www.w3.org/2000/svg"
 width="1080.000000pt" height="1080.000000pt" viewBox="0 0 1080.000000 1080.000000"
 preserveAspectRatio="xMidYMid meet">
<metadata>
Created by potrace 1.14, written by Peter Selinger 2001-2017
</metadata>
<g transform="translate(0.000000,1080.000000) scale(0.100000,-0.100000)"
fill="#000000" stroke="none">
<path d="M5620 10543 c-308 -18 -690 -88 -1000 -183 -278 -86 -629 -254 -675
-324 -21 -32 -6 -70 33 -84 26 -9 38 -5 108 35 106 61 283 146 385 184 402
150 890 239 1303 239 335 0 481 -37 996 -258 129 -55 263 -110 298 -123 l63
-22 27 20 c31 23 39 60 20 85 -7 10 -78 45 -158 77 -80 33 -192 80 -250 106
-223 100 -477 188 -631 219 -145 29 -335 40 -519 29z"/>
<path d="M2596 10199 c-14 -11 -26 -31 -26 -43 0 -48 34 -63 280 -120 319 -75
443 -95 657 -108 151 -10 186 -10 207 2 30 15 40 41 32 75 -9 36 -39 47 -145
51 -276 11 -379 26 -757 115 -116 27 -213 49 -216 49 -3 0 -17 -9 -32 -21z"/>
<path d="M7704 10008 c-12 -6 -28 -21 -35 -34 -22 -42 11 -71 167 -144 179
-84 307 -153 419 -225 322 -208 634 -418 715 -483 197 -157 419 -404 577 -643
74 -112 240 -425 231 -434 -9 -9 -130 94 -290 247 -96 92 -187 177 -201 188
-32 26 -67 25 -95 0 -39 -37 -31 -57 69 -172 162 -188 285 -425 401 -770 140
-421 248 -1106 248 -1583 l0 -160 -44 81 c-91 170 -155 244 -213 244 -32 0
-81 -47 -93 -88 -5 -20 -12 -143 -14 -272 -6 -246 -16 -331 -61 -496 -47 -172
-98 -273 -202 -402 -47 -59 -52 -79 -25 -112 28 -35 67 -29 114 16 88 86 172
241 227 420 57 181 71 279 78 523 l6 223 24 -38 c13 -22 51 -92 84 -156 89
-173 154 -218 212 -148 36 42 41 99 34 429 -13 643 -136 1299 -334 1786 -25
61 -52 123 -60 138 -8 16 -12 31 -10 34 3 2 27 -11 54 -30 53 -38 122 -67 156
-67 32 0 67 27 82 64 21 49 5 98 -94 298 -152 304 -358 587 -602 823 -134 130
-238 212 -415 330 -71 47 -124 85 -119 86 6 0 28 0 51 -1 99 -4 381 41 447 71
14 6 30 22 37 35 11 19 10 27 -4 49 -10 14 -24 29 -33 32 -9 4 -66 -4 -127
-17 -182 -38 -470 -38 -616 0 -19 5 -76 35 -125 66 -125 79 -278 161 -425 229
-149 69 -168 75 -196 63z"/>
<path d="M3190 9806 c-366 -126 -593 -262 -920 -552 -229 -203 -558 -562 -683
-744 -35 -50 -10 -110 45 -110 29 0 50 21 179 186 233 296 616 660 878 836
158 105 406 221 597 277 60 18 74 26 84 50 13 33 2 64 -30 81 -28 15 -45 12
-150 -24z"/>
<path d="M1242 8315 c-117 -73 -240 -137 -347 -180 -113 -46 -134 -68 -109
-116 7 -15 23 -30 33 -34 43 -13 244 72 438 186 139 83 166 120 123 167 -30
32 -57 27 -138 -23z"/>
<path d="M1291 8161 c-35 -38 -81 -126 -209 -401 -239 -517 -342 -850 -342
-1112 0 -119 17 -170 62 -189 63 -26 105 24 144 172 69 257 195 533 477 1039
103 184 146 250 219 328 32 34 58 69 58 76 0 24 -41 66 -63 66 -54 0 -145 -96
-239 -250 -119 -195 -377 -687 -443 -843 -15 -37 -30 -66 -32 -64 -5 6 79 257
125 372 61 152 115 272 263 580 21 44 53 106 71 137 l33 57 -21 28 c-30 40
-68 42 -103 4z"/>
<path d="M7753 7854 l-26 -26 6 -246 c4 -178 13 -299 31 -432 13 -102 41 -304
61 -450 29 -216 65 -525 65 -563 0 -5 -5 -5 -10 -2 -19 12 -61 107 -170 384
-112 284 -126 319 -190 457 -112 241 -314 534 -526 764 -44 47 -63 60 -85 60
-32 0 -64 -27 -81 -68 -13 -33 -26 -526 -24 -970 l1 -312 -76 0 -77 0 -89 98
c-49 53 -152 176 -228 272 -88 111 -186 220 -269 300 -71 69 -266 261 -432
428 -203 202 -309 302 -323 302 -33 0 -56 -31 -120 -157 -222 -445 -353 -870
-416 -1355 -9 -67 -18 -124 -20 -126 -2 -2 -6 23 -10 55 -9 83 -23 120 -52
143 -65 51 -130 9 -231 -148 -26 -40 -52 -80 -58 -89 -10 -14 -22 -11 -115 25
-116 46 -105 31 -122 165 -6 39 -4 47 10 47 9 0 70 -26 135 -57 l119 -56 27
20 c38 28 40 63 5 98 -31 31 -153 91 -254 125 -76 25 -66 2 -94 215 -10 78
-13 148 -9 200 6 70 3 88 -16 132 -26 61 -77 105 -150 129 -45 15 -60 16 -99
5 -124 -33 -409 -287 -611 -544 -73 -93 -89 -109 -125 -117 -183 -47 -482
-177 -640 -280 -169 -111 -335 -258 -335 -298 0 -25 41 -62 68 -62 12 0 45 20
74 45 204 172 349 268 522 344 100 44 229 92 234 87 1 -2 -15 -34 -35 -72 -21
-38 -45 -82 -53 -98 -12 -22 -34 -35 -100 -61 -250 -96 -471 -246 -584 -396
-50 -66 -58 -105 -28 -132 37 -34 60 -22 160 84 105 110 217 191 356 258 77
37 106 47 106 38 0 -2 -11 -37 -25 -78 -14 -41 -36 -114 -50 -164 -13 -49 -46
-133 -74 -185 -83 -159 -109 -282 -91 -428 13 -97 67 -295 105 -382 36 -82
120 -212 181 -279 71 -79 265 -200 383 -238 66 -21 291 -28 419 -13 168 19
440 91 547 144 135 66 175 107 240 239 64 129 80 181 94 297 39 310 -20 602
-165 822 l-44 66 24 56 c14 31 27 56 30 56 3 0 28 -9 56 -20 63 -25 92 -25
113 -2 34 37 16 82 -44 112 -50 26 -55 39 -33 82 23 45 86 140 90 135 2 -1 15
-59 29 -127 52 -249 84 -320 145 -320 67 0 81 38 100 265 50 590 158 1008 386
1493 l58 124 275 -274 c151 -150 331 -329 401 -398 107 -107 254 -277 351
-410 14 -19 51 -63 82 -96 l57 -61 -88 -18 c-194 -38 -443 -139 -486 -197 -25
-35 -13 -78 26 -92 23 -8 43 -1 130 42 121 60 261 103 418 128 l113 18 73 -79
c40 -44 71 -82 69 -86 -3 -3 -37 -7 -77 -8 -206 -6 -488 -81 -700 -187 -51
-26 -69 -40 -74 -61 -8 -31 3 -53 37 -72 23 -13 33 -10 116 27 127 57 278 108
397 134 85 19 133 22 296 22 216 0 338 -16 544 -74 337 -95 563 -220 730 -403
62 -68 85 -87 106 -87 31 0 60 27 60 56 0 33 -53 105 -136 185 -223 215 -591
371 -1044 443 l-35 6 -2 85 c-1 52 2 85 8 85 60 0 305 -54 414 -92 184 -63
394 -165 420 -204 23 -36 94 -84 124 -84 18 0 55 -25 121 -81 108 -92 128
-104 164 -95 35 9 51 40 37 75 -11 25 -90 101 -177 168 -41 32 -41 33 -47 115
-15 191 -90 804 -112 918 -5 25 -5 25 10 -3 38 -67 205 -565 342 -1017 185
-614 230 -802 278 -1160 30 -232 39 -271 61 -287 29 -21 49 -16 161 40 106 52
107 52 202 52 89 0 102 -3 163 -33 116 -57 215 -199 260 -374 32 -123 32 -342
0 -452 -25 -85 -74 -192 -122 -261 -75 -109 -256 -228 -396 -261 -143 -33
-373 9 -557 104 -58 29 -72 33 -93 23 -38 -17 -51 -54 -30 -86 22 -34 63 -58
159 -95 204 -79 407 -108 541 -76 144 34 307 128 412 238 148 155 228 347 241
579 10 195 -23 355 -105 512 -111 212 -273 320 -477 320 -80 -1 -99 -4 -179
-37 -49 -20 -90 -35 -92 -34 -1 2 -10 62 -19 133 -44 352 -86 536 -250 1085
-152 514 -342 1080 -406 1216 -24 52 -56 68 -94 48 -15 -8 -29 -13 -30 -12 -9
11 -28 261 -32 441 -6 217 -6 218 -31 237 -33 26 -48 25 -79 -6z m-663 -430
c179 -236 281 -416 409 -727 65 -158 181 -454 181 -461 0 -3 -29 8 -64 24
-150 67 -352 126 -526 155 -58 9 -114 19 -126 21 -19 3 -21 12 -28 125 -7 120
-1 643 10 898 l6 134 34 -39 c19 -21 65 -80 104 -130z m-3146 -356 c25 -22 26
-28 30 -168 2 -80 9 -178 16 -218 7 -40 10 -75 7 -78 -3 -3 -39 0 -79 7 -83
14 -362 18 -486 6 -54 -5 -83 -4 -80 2 9 26 209 239 291 311 181 158 245 187
301 138z m-113 -579 c55 -6 122 -16 148 -23 l46 -11 9 -83 c4 -46 6 -85 4 -87
-2 -2 -49 5 -103 17 -196 42 -529 26 -772 -37 -35 -8 -53 -10 -53 -3 0 21 111
187 128 192 127 37 415 54 593 35z m2989 -195 c0 -14 -3 -14 -15 -4 -8 7 -15
14 -15 16 0 2 7 4 15 4 8 0 15 -7 15 -16z m-3725 -286 c-59 -40 -116 -79 -126
-87 -17 -12 -16 -7 7 54 40 109 31 102 135 104 l92 2 -108 -73z m834 56 c3 -3
-1 -10 -7 -16 -34 -34 -2 -83 86 -127 76 -38 90 -56 112 -139 20 -80 43 -116
84 -133 25 -11 34 -10 66 9 l38 21 35 -67 c72 -138 117 -324 117 -483 0 -91
-19 -248 -36 -303 -25 -78 -101 -224 -131 -251 -50 -44 -165 -94 -302 -130
-177 -47 -282 -65 -421 -72 -199 -10 -305 18 -461 123 -85 58 -125 97 -190
192 -67 96 -103 178 -141 320 -56 210 -42 419 33 475 22 16 35 40 51 90 28 93
109 186 247 285 211 151 300 182 516 182 118 0 135 2 156 20 20 17 33 19 84
13 33 -3 62 -7 64 -9z m330 -75 c34 -12 37 -22 18 -56 -12 -21 -14 -22 -35 -7
-14 10 -22 26 -22 45 0 16 2 29 4 29 1 0 17 -5 35 -11z"/>
<path d="M1471 7634 c-30 -22 -33 -29 -131 -316 -142 -415 -192 -643 -209
-943 -12 -224 15 -516 56 -603 25 -52 77 -56 108 -8 15 23 15 31 1 103 -53
265 -48 555 14 878 26 134 80 316 174 589 42 120 76 230 76 245 0 47 -53 80
-89 55z"/>
<path d="M6687 5990 c-57 -4 -72 -9 -88 -29 -23 -28 -24 -50 -5 -77 13 -17 32
-20 178 -25 192 -7 254 -23 382 -99 158 -93 269 -189 351 -304 52 -73 117
-208 134 -278 24 -103 7 -252 -49 -426 -39 -119 -74 -189 -148 -289 -47 -63
-78 -92 -144 -136 -163 -108 -249 -137 -412 -137 -134 0 -253 16 -421 56 -172
42 -279 82 -348 132 -41 29 -56 50 -98 138 -59 122 -76 196 -85 359 -14 262
62 526 196 678 44 50 202 164 275 198 90 42 101 114 22 142 -45 16 -328 -169
-409 -268 -27 -33 -74 -109 -103 -170 -93 -190 -121 -338 -112 -584 4 -107 12
-180 26 -232 21 -80 114 -276 153 -320 64 -73 198 -136 398 -188 181 -48 236
-58 380 -71 185 -18 337 3 451 61 272 137 420 314 517 620 40 124 52 200 52
324 0 113 -12 165 -63 283 -78 179 -218 341 -407 468 -126 85 -193 120 -280
146 -73 22 -241 35 -343 28z"/>
<path d="M1051 5774 c-12 -15 -21 -29 -21 -33 0 -9 28 -155 39 -203 6 -24 22
-99 37 -168 41 -197 100 -439 155 -637 52 -186 66 -212 117 -228 35 -10 78 39
86 101 10 82 26 333 27 434 0 52 4 115 7 140 l7 44 39 -104 c21 -58 85 -202
141 -320 100 -209 103 -216 85 -235 -58 -65 -74 -223 -38 -375 17 -75 83 -201
143 -273 96 -116 205 -191 385 -264 121 -49 148 -50 176 -8 13 20 14 28 2 51
-10 21 -36 37 -113 70 -132 57 -188 87 -260 145 -109 85 -180 199 -210 334
-18 79 -17 122 5 223 10 46 15 52 36 52 62 0 87 37 155 232 27 79 73 186 102
238 28 52 67 128 86 168 19 40 40 71 45 69 6 -1 45 -53 86 -115 76 -113 102
-141 131 -142 28 0 62 34 62 62 0 35 -124 227 -185 289 -54 54 -91 66 -140 46
-42 -18 -57 -38 -138 -192 -108 -204 -127 -246 -166 -360 -20 -60 -40 -114
-44 -118 -4 -5 -14 7 -23 25 -9 18 -50 105 -92 193 -81 168 -149 362 -185 529
-25 111 -48 146 -99 146 -34 0 -76 -43 -85 -87 -21 -100 -37 -241 -45 -391 -5
-96 -11 -175 -13 -178 -8 -7 -79 293 -144 606 -47 226 -61 260 -110 260 -12 0
-32 -12 -43 -26z"/>
<path d="M2240 5098 c-25 -27 -26 -66 -5 -239 38 -326 142 -686 276 -951 182
-363 422 -593 816 -784 83 -41 157 -74 162 -74 6 0 11 -4 11 -10 0 -5 -11 -10
-24 -10 -39 0 -166 -42 -473 -158 -308 -116 -483 -199 -516 -244 -18 -23 -22
-55 -33 -224 -14 -199 -22 -245 -54 -299 -43 -71 -121 -239 -145 -308 -32 -97
-32 -131 0 -163 l25 -25 -25 -50 c-14 -28 -32 -60 -40 -72 -21 -30 -19 -67 5
-92 l20 -21 -50 -90 c-91 -162 -213 -441 -322 -734 -44 -118 -188 -537 -188
-547 0 -1 30 -3 68 -3 l67 0 68 201 c79 235 173 482 257 680 75 174 111 247
208 417 56 99 84 138 106 149 17 9 132 77 256 151 248 149 283 167 450 223
151 51 227 66 400 79 230 18 511 -20 639 -85 40 -20 60 -35 51 -38 -8 -3 -98
-23 -200 -46 -445 -100 -654 -152 -672 -167 -23 -22 -23 -66 0 -87 33 -30 28
-31 662 117 321 75 422 90 610 91 132 0 177 -4 225 -18 104 -32 301 -135 403
-211 53 -40 120 -86 147 -101 159 -91 198 -131 300 -310 54 -94 212 -331 280
-421 45 -59 129 -278 178 -464 l42 -160 68 0 c37 0 67 2 67 5 0 11 -92 342
-111 396 -10 31 -48 111 -84 178 -63 116 -73 152 -56 195 6 16 11 13 36 -20
95 -125 216 -203 343 -220 131 -17 197 59 238 273 24 128 24 372 0 482 -10 47
-20 90 -23 97 -2 7 12 13 38 17 23 3 76 23 118 43 42 21 80 37 84 36 4 -1 99
-4 210 -7 111 -3 261 -12 332 -20 211 -25 248 -27 294 -17 l43 10 77 -66 c201
-175 278 -297 611 -977 98 -198 180 -370 184 -382 7 -21 13 -23 82 -23 41 0
73 3 71 8 -2 4 -44 90 -92 192 -152 317 -409 820 -473 925 -84 139 -181 255
-280 339 l-84 71 5 44 c9 85 -64 357 -166 611 -79 199 -104 240 -146 240 -33
0 -61 -27 -61 -58 0 -12 23 -77 51 -145 77 -183 105 -264 150 -427 24 -88 39
-164 37 -187 l-3 -38 -95 0 c-52 0 -140 5 -195 12 -55 7 -175 15 -266 19
l-165 7 34 70 c30 59 35 81 36 141 1 39 -3 85 -7 102 -8 29 -5 32 50 66 70 44
179 142 216 195 93 134 134 399 88 569 -30 112 -69 182 -146 260 -115 117
-221 158 -405 157 -204 0 -296 -46 -551 -275 -42 -37 -78 -68 -81 -68 -3 0
-66 45 -139 100 -74 56 -164 116 -201 135 l-68 33 83 32 c118 45 430 134 580
164 128 26 367 48 422 39 17 -3 51 -11 78 -20 l47 -15 -20 -25 c-39 -50 -14
-103 48 -103 48 0 262 47 364 81 232 75 429 199 619 389 181 181 277 337 358
581 37 113 41 161 16 189 -39 43 -115 6 -115 -56 0 -29 -52 -178 -96 -273 -53
-115 -138 -234 -243 -340 -201 -203 -413 -327 -670 -392 -63 -16 -115 -28
-116 -26 -31 61 -112 111 -216 133 -94 19 -310 6 -495 -32 -134 -27 -447 -114
-570 -158 -39 -14 -74 -26 -78 -26 -3 0 -6 15 -6 34 0 50 -35 154 -70 209 -65
103 -186 206 -303 257 -119 53 -360 87 -496 69 -103 -12 -165 -51 -247 -153
-113 -141 -194 -334 -194 -462 l0 -61 -47 -7 c-27 -3 -174 -15 -328 -26 -154
-11 -299 -22 -322 -25 -31 -5 -51 -1 -79 15 -22 11 -47 20 -57 20 -88 0 -422
150 -612 275 -121 80 -302 261 -384 385 -197 296 -339 733 -382 1174 -9 97
-17 134 -31 152 -24 30 -61 31 -88 2z m3095 -1442 c161 -36 315 -147 377 -273
29 -60 32 -75 36 -184 4 -99 8 -121 24 -138 10 -12 24 -21 31 -21 7 0 18 -13
23 -29 8 -20 33 -41 80 -69 72 -42 249 -170 297 -215 58 -55 95 -60 153 -21
21 15 41 29 44 33 12 16 182 162 231 199 30 23 81 54 114 69 56 26 69 28 190
28 127 0 132 -1 196 -32 165 -82 251 -249 236 -461 -16 -217 -99 -348 -286
-449 -96 -51 -105 -77 -86 -240 7 -56 4 -69 -19 -117 -31 -64 -113 -143 -181
-175 -26 -12 -81 -26 -122 -31 -47 -5 -81 -14 -94 -26 -25 -23 -25 -77 2 -174
42 -153 35 -479 -13 -608 l-20 -54 -52 4 c-28 2 -69 13 -91 24 -66 31 -158
131 -206 225 -54 103 -80 120 -137 92 -36 -18 -44 -31 -69 -123 -4 -15 -105
136 -197 296 -62 106 -144 190 -242 246 -42 24 -110 68 -152 98 -172 125 -307
200 -444 249 -103 36 -247 55 -348 47 -81 -7 -83 -7 -425 137 -109 45 -295 71
-505 70 -240 -1 -355 -18 -547 -82 -183 -61 -228 -83 -496 -245 -115 -69 -212
-126 -217 -126 -4 0 -5 20 -2 46 4 39 1 49 -23 74 l-28 29 18 48 c10 26 53
118 96 203 87 174 94 202 107 445 l7 130 80 42 c44 22 179 78 300 123 121 45
265 99 320 121 116 46 198 64 350 79 61 6 121 12 135 15 14 3 156 14 315 25
160 11 309 22 333 26 23 3 42 3 42 0 0 -2 -25 -38 -55 -78 -75 -99 -151 -254
-172 -351 -14 -66 -15 -89 -5 -145 18 -107 111 -271 184 -326 35 -25 77 -14
96 27 15 32 8 51 -47 114 -97 109 -126 252 -78 371 62 154 221 372 271 372 40
0 70 32 68 74 -1 20 -6 44 -11 54 -5 9 -12 38 -16 63 -22 146 160 479 280 512
37 11 279 -2 350 -17z"/>
<path d="M4865 4025 c-49 -48 -23 -86 76 -110 82 -20 114 -12 125 31 9 36 -4
55 -56 82 -60 30 -114 29 -145 -3z"/>
</g>
</svg>
